<svg width="242" height="132" viewBox="0 0 242 132" fill="none" xmlns="http://www.w3.org/2000/svg">
<path d="M4.72266 66.5781L4.01953 66.7539C3.90234 66.8711 3.57031 66.9688 3.02344 67.0469C2.47656 67.125 1.94922 67.125 1.44141 67.0469C0.933594 66.9688 0.699219 66.7734 0.738281 66.4609C0.660156 65.3281 1.38281 64.8203 2.90625 64.9375C4.50781 65.0547 5.44531 64.5469 5.71875 63.4141L8.47266 52.9258L9.58594 51.8125C9.97656 51.9297 10.1719 52.2812 10.1719 52.8672L10.1133 53.4531L7.35938 64.5273V64.8203C7.67188 64.9375 8.14062 64.9961 8.76562 64.9961C9.39062 64.9961 10.5039 64.7812 12.1055 64.3516C13.707 63.8828 14.625 63.6484 14.8594 63.6484C14.8594 65.7969 13.4141 66.8711 10.5234 66.8711C9.625 66.8711 8.60938 66.7734 7.47656 66.5781C6.61719 68.5312 6.1875 70.3281 6.1875 71.9688C6.1875 73.5703 6.61719 75.0547 7.47656 76.4219C8.33594 77.75 9.66406 78.4141 11.4609 78.4141C13.2969 78.1406 14.7031 77.7109 15.6797 77.125C16.6953 76.5 17.4375 76.0703 17.9062 75.8359C18.375 75.5625 18.8438 75.4258 19.3125 75.4258C19.7812 75.4258 20.2891 75.4844 20.8359 75.6016C19.7422 77.5547 16.5781 78.8438 11.3438 79.4688C11.2266 79.4688 11.1289 79.4688 11.0508 79.4688C8.35547 79.4688 6.53906 78.4727 5.60156 76.4805C4.89844 75.0352 4.54688 73.375 4.54688 71.5C4.54688 69.5859 4.60547 67.9453 4.72266 66.5781ZM41.9297 76.3047C39.8203 77.8281 37.5156 78.5898 35.0156 78.5898C33.7266 78.5898 32.6719 78.1992 31.8516 77.418C31.0703 76.6367 30.582 75.6602 30.3867 74.4883C30.1914 73.2773 30.0547 72.2031 29.9766 71.2656C29.9375 70.2891 29.918 69.4883 29.918 68.8633C29.918 68.1992 29.957 67.5156 30.0352 66.8125C29.918 66.3828 29.3711 66.168 28.3945 66.168C27.457 66.168 26.5391 66.6562 25.6406 67.6328C24.7422 68.6094 24 69.7812 23.4141 71.1484C22.8672 72.4766 22.3203 73.8047 21.7734 75.1328C21.2656 76.4609 20.7773 77.457 20.3086 78.1211C19.8398 78.7852 19.4492 79.1172 19.1367 79.1172C18.8242 79.1172 18.5898 79.0781 18.4336 79C18.3945 78.7656 18.375 78.4922 18.375 78.1797C18.375 76.2266 19.0586 72.0273 20.4258 65.582C21.793 59.1367 23.1406 53.6094 24.4688 49C24.5469 48.7266 24.7617 48.1406 25.1133 47.2422C25.5039 46.3047 25.9141 45.6406 26.3438 45.25C26.7734 44.8203 27.2227 44.6055 27.6914 44.6055C28.1602 44.6055 28.5312 44.7031 28.8047 44.8984V44.7812C29.1953 45.0547 29.5078 45.7188 29.7422 46.7734C29.9766 47.8281 30.0938 48.668 30.0938 49.293C30.0938 52.9648 29.1367 56.3242 27.2227 59.3711C26.4414 60.6211 25.6602 61.793 24.8789 62.8867C24.0977 63.9805 23.4727 65.0156 23.0039 65.9922C22.5742 66.9688 22.3594 67.6914 22.3594 68.1602C22.3594 68.6289 22.3594 68.9219 22.3594 69.0391C24.5078 66.0312 26.793 64.5273 29.2148 64.5273C30.0742 64.5273 30.6992 64.625 31.0898 64.8203C31.4023 65.0156 31.5977 65.2891 31.6758 65.6406C31.7539 65.9531 31.793 66.793 31.793 68.1602C31.832 69.4883 31.8906 70.6406 31.9688 71.6172C32.0859 72.5547 32.2617 73.5703 32.4961 74.6641C32.7305 75.7188 33.043 76.4023 33.4336 76.7148C33.8633 77.0273 34.2539 77.1836 34.6055 77.1836C34.957 77.1836 35.3281 77.0859 35.7188 76.8906C39.1562 75.2109 41.4219 74.3711 42.5156 74.3711C43.0234 74.3711 43.2773 74.5273 43.2773 74.8398C43.2773 75.1523 42.8281 75.6406 41.9297 76.3047ZM26.1094 49.7031C24.6641 55.2891 23.9219 58.4727 23.8828 59.2539C23.8828 59.9961 23.8828 60.4062 23.8828 60.4844L23.9414 61.3047C25.7773 60.5625 27.0859 57.3203 27.8672 51.5781C28.1016 49.8984 28.2188 48.5312 28.2188 47.4766C28.2188 46.4219 28.043 45.8945 27.6914 45.8945C27.3398 45.8945 26.8125 47.1641 26.1094 49.7031ZM42.1055 72.8477C42.0664 72.4961 42.0469 72.1641 42.0469 71.8516C42.0469 69.3516 42.8672 66.7734 44.5078 64.1172C46.1875 61.4609 48.3359 60.1328 50.9531 60.1328C51.4609 60.1328 51.8711 60.2891 52.1836 60.6016C52.4961 60.875 52.6523 61.3633 52.6523 62.0664C52.6523 62.7305 52.457 63.5312 52.0664 64.4688C51.7148 65.3672 51.1484 66.2852 50.3672 67.2227C49.625 68.1602 48.9805 68.9219 48.4336 69.5078C47.8867 70.0938 47.1055 70.8555 46.0898 71.793C45.1133 72.7305 44.5273 73.2969 44.332 73.4922C44.293 73.8047 44.2734 73.9805 44.2734 74.0195C44.2734 75.0742 44.7812 75.8945 45.7969 76.4805C46.8125 77.0664 47.8672 77.3594 48.9609 77.3594C51.5781 77.3594 53.6484 76.8906 55.1719 75.9531C56.7344 75.0156 58.5312 73.4336 60.5625 71.207C60.875 70.8164 61.0508 70.5039 61.0898 70.2695C61.168 70.0352 61.3828 69.7812 61.7344 69.5078C62.125 69.6641 62.3203 70.0352 62.3203 70.6211C61.9297 71.832 61.1484 73.1406 59.9766 74.5469C58.8047 75.9141 57.418 77.0859 55.8164 78.0625C53.5898 79.3516 51.6953 79.9961 50.1328 79.9961C48.6094 79.9961 47.125 79.4688 45.6797 78.4141C44.2344 77.3594 43.043 75.5039 42.1055 72.8477ZM51.0703 62.3008C49.3906 62.3008 47.8281 63.1992 46.3828 64.9961C44.9375 66.793 44.2148 68.5117 44.2148 70.1523C44.2148 70.6992 44.2539 71.0898 44.332 71.3242C45.7773 70.543 47.2617 69.2148 48.7852 67.3398C50.3086 65.4258 51.0703 63.7461 51.0703 62.3008ZM88.9805 68.3359C88.9805 66.1875 89.0586 63.707 89.2148 60.8945C89.6055 60.8945 89.9375 61.0508 90.2109 61.3633C90.5234 61.6367 90.6602 62.0664 90.6211 62.6523C90.582 63.2383 90.5625 64.8984 90.5625 67.6328C90.5625 70.3672 90.6016 72.1055 90.6797 72.8477C90.8359 75.1133 91.2852 76.2461 92.0273 76.2461C92.418 76.2461 92.9062 75.9336 93.4922 75.3086C94.8984 73.7461 96.1875 71.2656 97.3594 67.8672C97.7891 66.5391 98.0039 65.6992 98.0039 65.3477C98.0039 64.957 98.0039 64.7227 98.0039 64.6445H99.4102C99.4883 65.0742 99.625 66.2656 99.8203 68.2188C100.367 72.8672 100.973 75.5625 101.637 76.3047C102.535 76.1094 103.18 74.8594 103.57 72.5547C103.961 70.2109 104.156 68.3164 104.156 66.8711L105.27 65.6992C105.582 66.7148 105.797 67.3984 105.914 67.75C106.07 68.1016 106.305 68.4727 106.617 68.8633C106.93 69.2539 107.281 69.4883 107.672 69.5664C108.102 69.6445 108.688 69.6836 109.43 69.6836C110.875 68.7461 111.734 68.2773 112.008 68.2773C112.32 68.2773 112.477 68.3359 112.477 68.4531C112.477 69 111.988 69.625 111.012 70.3281C110.074 70.9922 109.488 71.3242 109.254 71.3242C109.02 71.3242 108.883 71.3242 108.844 71.3242C107.398 71.3242 106.402 71.1289 105.855 70.7383C105.816 70.8945 105.719 71.3633 105.562 72.1445C105.406 72.9258 105.23 73.6289 105.035 74.2539C104.84 74.8398 104.586 75.4844 104.273 76.1875C103.609 77.75 102.633 78.5312 101.344 78.5312C100.797 78.5312 100.328 78.1211 99.9375 77.3008C99.4297 76.3242 98.9805 75.1133 98.5898 73.668C98.1992 72.1836 98.0039 71.4023 98.0039 71.3242C95.2305 76.3242 93.1016 78.8242 91.6172 78.8242C89.8594 78.8242 88.9805 75.3281 88.9805 68.3359ZM110.836 72.8477C110.797 72.4961 110.777 72.1641 110.777 71.8516C110.777 69.3516 111.598 66.7734 113.238 64.1172C114.918 61.4609 117.066 60.1328 119.684 60.1328C120.191 60.1328 120.602 60.2891 120.914 60.6016C121.227 60.875 121.383 61.3633 121.383 62.0664C121.383 62.7305 121.188 63.5312 120.797 64.4688C120.445 65.3672 119.879 66.2852 119.098 67.2227C118.355 68.1602 117.711 68.9219 117.164 69.5078C116.617 70.0938 115.836 70.8555 114.82 71.793C113.844 72.7305 113.258 73.2969 113.062 73.4922C113.023 73.8047 113.004 73.9805 113.004 74.0195C113.004 75.0742 113.512 75.8945 114.527 76.4805C115.543 77.0664 116.598 77.3594 117.691 77.3594C120.309 77.3594 122.379 76.8906 123.902 75.9531C125.465 75.0156 127.262 73.4336 129.293 71.207C129.605 70.8164 129.781 70.5039 129.82 70.2695C129.898 70.0352 130.113 69.7812 130.465 69.5078C130.855 69.6641 131.051 70.0352 131.051 70.6211C130.66 71.832 129.879 73.1406 128.707 74.5469C127.535 75.9141 126.148 77.0859 124.547 78.0625C122.32 79.3516 120.426 79.9961 118.863 79.9961C117.34 79.9961 115.855 79.4688 114.41 78.4141C112.965 77.3594 111.773 75.5039 110.836 72.8477ZM119.801 62.3008C118.121 62.3008 116.559 63.1992 115.113 64.9961C113.668 66.793 112.945 68.5117 112.945 70.1523C112.945 70.6992 112.984 71.0898 113.062 71.3242C114.508 70.543 115.992 69.2148 117.516 67.3398C119.039 65.4258 119.801 63.7461 119.801 62.3008ZM130.113 74.4297C130.895 71.8516 131.734 69.7812 132.633 68.2188C133.57 66.6562 134.684 65.543 135.973 64.8789C137.262 64.1758 138.434 63.7461 139.488 63.5898C140.543 63.3945 142.008 63.2969 143.883 63.2969C144 62.8281 144.195 61.9102 144.469 60.543C144.742 59.1367 144.938 58.1992 145.055 57.7305C145.211 57.2227 145.426 56.4609 145.699 55.4453C146.168 53.7656 146.637 52.4961 147.105 51.6367C147.613 50.7383 147.926 50.1719 148.043 49.9375C148.16 49.7031 148.238 49.5469 148.277 49.4688C148.355 49.3516 148.453 49.2344 148.57 49.1172C148.727 48.9609 148.98 48.8828 149.332 48.8828C150.543 48.8828 151.148 50.1719 151.148 52.75V53.2773C151.148 55.3086 150.289 58.1211 148.57 61.7148C146.852 65.2695 145.992 67.9844 145.992 69.8594C145.992 74.0391 147.125 76.1289 149.391 76.1289C150.133 76.1289 151.148 75.8359 152.438 75.25C153.727 74.6641 154.742 74.3711 155.484 74.3711L156.07 74.4297C155.406 75.4453 154.41 76.2461 153.082 76.832C151.793 77.418 150.719 77.7109 149.859 77.7109C149.039 77.7109 148.473 77.6914 148.16 77.6523C147.848 77.6133 147.555 77.5352 147.281 77.418C147.008 77.2617 146.773 77.1445 146.578 77.0664C146.422 76.9883 146.227 76.8125 145.992 76.5391C145.797 76.2266 145.641 76.0117 145.523 75.8945C145.445 75.7773 145.309 75.5039 145.113 75.0742C144.918 74.6445 144.781 74.3711 144.703 74.2539C144.664 74.1367 144.527 73.8047 144.293 73.2578C144.098 72.7109 143.961 72.3594 143.883 72.2031C143.766 72.3203 143.316 72.8086 142.535 73.668C141.754 74.4883 141.207 75.0547 140.895 75.3672C140.582 75.6406 140.035 76.1094 139.254 76.7734C138.512 77.4375 137.887 77.9062 137.379 78.1797C135.934 78.9609 134.645 79.3516 133.512 79.3516C132.418 79.3516 131.617 79.0977 131.109 78.5898C130.641 78.043 130.348 77.4766 130.23 76.8906C130.152 76.2656 130.113 75.4453 130.113 74.4297ZM140.719 65.4648C138.531 65.4648 136.559 66.4805 134.801 68.5117C133.082 70.543 132.223 72.5938 132.223 74.6641C132.223 76.6953 132.77 77.7109 133.863 77.7109C135.387 77.7109 137.34 76.5586 139.723 74.2539C142.145 71.9102 143.355 69.918 143.355 68.2773C143.355 67.3008 143.141 66.5977 142.711 66.168C142.32 65.6992 141.656 65.4648 140.719 65.4648ZM149.449 51.6953C148.434 53.1016 147.594 54.9961 146.93 57.3789C146.305 59.7227 145.992 61.6953 145.992 63.2969C145.992 63.375 146.012 63.5508 146.051 63.8242L146.578 63.2969C147.047 62.8281 148.004 60.0547 149.449 54.9766L149.508 54.2734C149.508 53.8047 149.508 53.5117 149.508 53.3945C149.508 53.2773 149.488 52.9844 149.449 52.5156C149.449 52.0469 149.449 51.7734 149.449 51.6953ZM154.488 74.4297C155.27 71.8516 156.109 69.7812 157.008 68.2188C157.945 66.6562 159.059 65.543 160.348 64.8789C161.637 64.1758 162.809 63.7461 163.863 63.5898C164.918 63.3945 166.383 63.2969 168.258 63.2969C168.375 62.8281 168.57 61.9102 168.844 60.543C169.117 59.1367 169.312 58.1992 169.43 57.7305C169.586 57.2227 169.801 56.4609 170.074 55.4453C170.543 53.7656 171.012 52.4961 171.48 51.6367C171.988 50.7383 172.301 50.1719 172.418 49.9375C172.535 49.7031 172.613 49.5469 172.652 49.4688C172.73 49.3516 172.828 49.2344 172.945 49.1172C173.102 48.9609 173.355 48.8828 173.707 48.8828C174.918 48.8828 175.523 50.1719 175.523 52.75V53.2773C175.523 55.3086 174.664 58.1211 172.945 61.7148C171.227 65.2695 170.367 67.9844 170.367 69.8594C170.367 74.0391 171.5 76.1289 173.766 76.1289C174.508 76.1289 175.523 75.8359 176.812 75.25C178.102 74.6641 179.117 74.3711 179.859 74.3711L180.445 74.4297C179.781 75.4453 178.785 76.2461 177.457 76.832C176.168 77.418 175.094 77.7109 174.234 77.7109C173.414 77.7109 172.848 77.6914 172.535 77.6523C172.223 77.6133 171.93 77.5352 171.656 77.418C171.383 77.2617 171.148 77.1445 170.953 77.0664C170.797 76.9883 170.602 76.8125 170.367 76.5391C170.172 76.2266 170.016 76.0117 169.898 75.8945C169.82 75.7773 169.684 75.5039 169.488 75.0742C169.293 74.6445 169.156 74.3711 169.078 74.2539C169.039 74.1367 168.902 73.8047 168.668 73.2578C168.473 72.7109 168.336 72.3594 168.258 72.2031C168.141 72.3203 167.691 72.8086 166.91 73.668C166.129 74.4883 165.582 75.0547 165.27 75.3672C164.957 75.6406 164.41 76.1094 163.629 76.7734C162.887 77.4375 162.262 77.9062 161.754 78.1797C160.309 78.9609 159.02 79.3516 157.887 79.3516C156.793 79.3516 155.992 79.0977 155.484 78.5898C155.016 78.043 154.723 77.4766 154.605 76.8906C154.527 76.2656 154.488 75.4453 154.488 74.4297ZM165.094 65.4648C162.906 65.4648 160.934 66.4805 159.176 68.5117C157.457 70.543 156.598 72.5938 156.598 74.6641C156.598 76.6953 157.145 77.7109 158.238 77.7109C159.762 77.7109 161.715 76.5586 164.098 74.2539C166.52 71.9102 167.73 69.918 167.73 68.2773C167.73 67.3008 167.516 66.5977 167.086 66.168C166.695 65.6992 166.031 65.4648 165.094 65.4648ZM173.824 51.6953C172.809 53.1016 171.969 54.9961 171.305 57.3789C170.68 59.7227 170.367 61.6953 170.367 63.2969C170.367 63.375 170.387 63.5508 170.426 63.8242L170.953 63.2969C171.422 62.8281 172.379 60.0547 173.824 54.9766L173.883 54.2734C173.883 53.8047 173.883 53.5117 173.883 53.3945C173.883 53.2773 173.863 52.9844 173.824 52.5156C173.824 52.0469 173.824 51.7734 173.824 51.6953ZM179.449 66.4609L179.684 65.6992C180.465 63.1992 181.129 61.9492 181.676 61.9492C182.457 61.9492 182.848 62.2422 182.848 62.8281C182.848 62.9453 182.828 63.0625 182.789 63.1797C181.305 66.8125 180.562 70.2695 180.562 73.5508C180.562 75.0352 180.934 76.2852 181.676 77.3008C182.418 78.2773 183.551 78.7656 185.074 78.7656C188.902 77.2812 191.305 76.5391 192.281 76.5391C192.594 76.5391 192.75 76.6172 192.75 76.7734C192.75 77.2422 191.734 77.9258 189.703 78.8242C187.672 79.6836 186.07 80.1133 184.898 80.1133C183.766 80.1133 182.906 80.0156 182.32 79.8203C181.734 79.6641 181.305 79.5078 181.031 79.3516C180.758 79.1953 180.426 78.8633 180.035 78.3555C179.645 77.8086 179.391 77.1055 179.273 76.2461C179.156 75.3477 179.098 74.0781 179.098 72.4375C179.098 70.7969 179.215 68.8047 179.449 66.4609ZM204.176 72.9062C204.176 72.2031 204.176 70.9922 204.176 69.2734C204.215 67.5156 204.234 66.0117 204.234 64.7617C203.141 64.9961 201.539 66.4023 199.43 68.9805C197.359 71.5586 196.227 72.9062 196.031 73.0234C194.508 75.0547 193.316 76.5 192.457 77.3594C192.105 77.8281 191.539 78.0625 190.758 78.0625V76.7734L193.277 68.6289C193.277 65.7773 193.766 63.668 194.742 62.3008C195.016 61.9102 195.27 61.7148 195.504 61.7148C195.895 61.7148 196.09 62.3789 196.09 63.707C196.09 64.9961 195.895 66.4414 195.504 68.043C195.113 69.6055 194.918 70.9141 194.918 71.9688C195.23 71.6562 196.168 70.5625 197.73 68.6875C199.293 66.8125 200.23 65.7188 200.543 65.4062C200.816 65.25 201.285 64.8594 201.949 64.2344C203.355 62.9844 204.586 62.3594 205.641 62.3594C206.227 62.3594 206.598 62.5547 206.754 62.9453C206.793 63.375 206.812 64.0781 206.812 65.0547C206.812 65.9922 206.656 67.4961 206.344 69.5664C206.031 71.5977 205.855 73.2188 205.816 74.4297C205.816 76.2656 206.578 77.1836 208.102 77.1836C209.195 77.1836 210.25 76.8906 211.266 76.3047C212.281 75.6797 213.102 74.9961 213.727 74.2539C214.352 73.4727 215.074 72.5938 215.895 71.6172C216.715 70.6016 217.438 69.8594 218.062 69.3906V69.9766C218.062 71.8516 216.852 73.8047 214.43 75.8359C212.008 77.8281 209.801 78.8242 207.809 78.8242H205.875C205.289 78.4336 204.898 78.0625 204.703 77.7109C204.547 77.3594 204.43 77.1055 204.352 76.9492C204.273 76.793 204.215 76.5586 204.176 76.2461C204.176 75.8945 204.176 75.6406 204.176 75.4844V72.9062ZM229.84 66.5195L229.371 78.5898C229.371 78.6289 229.371 78.8047 229.371 79.1172C229.41 79.4297 229.43 79.625 229.43 79.7031C230.602 79.2344 232.34 78.3359 234.645 77.0078C236.949 75.6406 239.078 74.6836 241.031 74.1367C241.422 74.3711 241.617 74.6641 241.617 75.0156C241.617 75.0938 240.719 75.5625 238.922 76.4219C233.297 79.1562 229.938 81.168 228.844 82.457C228.258 88.4727 227.77 92.3789 227.379 94.1758C227.027 95.9727 226.793 97.1055 226.676 97.5742C226.598 98.082 226.383 98.8047 226.031 99.7422C225.68 100.68 225.309 101.363 224.918 101.793C223.863 102.965 222.652 103.551 221.285 103.551C219.918 103.551 218.57 103.277 217.242 102.73C215.953 102.223 215.016 101.559 214.43 100.738C214.352 100.348 214.312 99.7031 214.312 98.8047C214.312 95.9141 215.855 92.5938 218.941 88.8438C219.176 88.6484 219.898 88.0625 221.109 87.0859C224.352 84.4688 226.207 82.9258 226.676 82.457C227.066 81.793 227.262 80.5039 227.262 78.5898C227.262 78.4727 227.242 78.1016 227.203 77.4766C227.203 76.8516 227.203 76.4805 227.203 76.3633C224.391 78.2383 222.047 79.1758 220.172 79.1758C218.531 79.0977 217.34 78.1797 216.598 76.4219C216.285 75.6406 216.129 74.7031 216.129 73.6094C216.129 72.4766 216.637 71.168 217.652 69.6836C219.293 67.3398 222.008 65.6211 225.797 64.5273C228.492 64.5273 229.84 65.1914 229.84 66.5195ZM216.07 98.5703C216.07 99.5469 216.617 100.328 217.711 100.914C218.805 101.539 219.918 101.852 221.051 101.852C222.223 101.852 223.219 101.148 224.039 99.7422C224.898 98.375 225.484 96.6562 225.797 94.5859C226.383 91.1094 226.676 88.2578 226.676 86.0312V84.6836C224.098 86.3633 221.676 88.4922 219.41 91.0703C217.184 93.6875 216.07 96.1875 216.07 98.5703ZM218.297 76.1289C218.297 77.0664 219 77.5352 220.406 77.5352C222.789 77.457 224.625 76.5195 225.914 74.7227C227.203 72.9258 227.848 71.3633 227.848 70.0352C227.848 69.918 227.848 69.8008 227.848 69.6836V69.0977C227.848 68.2383 227.652 67.5547 227.262 67.0469C226.871 66.5 226.324 66.2266 225.621 66.2266C225.465 66.1875 225.289 66.168 225.094 66.168C223.336 66.168 221.715 67.1641 220.23 69.1562C218.785 71.1484 218.062 72.9258 218.062 74.4883C218.062 75.0352 218.141 75.582 218.297 76.1289Z" fill="#9A7C44"/>
<path d="M51.4208 33.84C51.4208 36.0267 50.2208 37.4933 47.8208 38.24C47.6074 38.176 47.5008 38.0907 47.5008 37.984C47.5008 37.888 47.6074 37.7707 47.8208 37.632C49.2074 36.7467 49.9008 35.4827 49.9008 33.84V25.568C49.8581 25.3227 49.6074 25.1627 49.1488 25.088H48.1088V24.368H53.1968V25.088H52.0768C51.7888 25.1307 51.5701 25.2907 51.4208 25.568V33.84ZM58.5637 24.88H57.6837V24.16H62.6118V24.88H61.6518C61.4278 24.88 61.2678 24.944 61.1718 25.072C61.0864 25.1893 61.0437 25.3013 61.0437 25.408V31.52C61.0437 33.8773 62.1104 35.056 64.2438 35.056C66.3344 35.056 67.4278 33.8773 67.5238 31.52V25.424C67.5238 25.3173 67.4704 25.2107 67.3638 25.104C67.2678 24.9867 67.1238 24.912 66.9318 24.88H65.9718V24.16H70.1478V24.88H69.3478C69.1984 24.9013 69.0118 24.992 68.7878 25.152C68.5744 25.3013 68.4678 25.456 68.4678 25.616V31.52C68.4678 34.5067 67.0438 36 64.1958 36C61.0278 36 59.4437 34.5067 59.4437 31.52V25.616C59.4437 25.2107 59.1504 24.9653 58.5637 24.88ZM86.0577 35.28H86.9377V36H82.1698V35.28H83.1298C83.3537 35.28 83.5084 35.216 83.5938 35.088C83.6898 34.96 83.7378 34.848 83.7378 34.752V34.544L82.7137 31.712H78.2337L77.2417 34.544V34.736C77.2417 34.8427 77.2951 34.9547 77.4017 35.072C77.5084 35.1787 77.6577 35.248 77.8497 35.28H78.8098V36H74.6337V35.28H75.4337C75.6257 35.248 75.8071 35.1627 75.9777 35.024C76.1377 34.8853 76.2497 34.7253 76.3137 34.544L80.0257 24.16H81.4657L85.1778 34.544C85.3271 34.9707 85.6204 35.216 86.0577 35.28ZM78.5217 30.96H82.4578L80.4897 25.44L78.5217 30.96ZM94.8199 34.208C94.8199 34.9227 95.2945 35.28 96.2439 35.28H96.5959V36H91.8919V35.28L92.2919 35.264C93.2199 35.232 93.6839 34.88 93.6839 34.208V25.568C93.6412 25.3227 93.3905 25.1627 92.9319 25.088H91.8919V24.368H94.8519L101.796 32.576V26.208C101.796 25.4613 101.348 25.088 100.452 25.088H100.004V24.368H104.708V25.104H104.292C103.385 25.104 102.932 25.472 102.932 26.208V36.48L94.8199 26.864V34.208ZM124.871 30.928V31.92H121.847V34.944H120.855V31.92H117.831V30.928H120.855V27.888H121.847V30.928H124.871ZM143.365 35.2C145.178 35.2 146.49 34.704 147.301 33.712L147.621 33.28L148.085 33.664C147.669 34.208 147.375 34.5547 147.205 34.704C147.045 34.8427 146.869 34.9813 146.677 35.12C146.495 35.2587 146.314 35.3707 146.133 35.456C145.962 35.5413 145.839 35.6053 145.765 35.648L145.525 35.744C144.757 36.032 143.951 36.176 143.109 36.176C142.266 36.176 141.509 36.0213 140.837 35.712C140.175 35.4027 139.605 34.9653 139.125 34.4C138.645 33.8347 138.255 33.136 137.957 32.304C137.658 31.472 137.509 30.6667 137.509 29.888C137.509 27.9253 138.341 26.3093 140.005 25.04C140.922 24.3573 141.903 24.016 142.949 24.016C143.994 24.016 144.847 24.144 145.509 24.4C145.562 24.4213 145.599 24.432 145.621 24.432C145.653 24.432 145.669 24.4107 145.669 24.368C145.669 24.3253 145.637 24.256 145.573 24.16H146.373L147.925 26.528L147.477 26.896L147.141 26.464L146.501 25.856C146.021 25.3973 145.53 25.12 145.029 25.024C144.538 24.928 144.079 24.88 143.653 24.88C143.226 24.88 142.815 24.9493 142.421 25.088C142.026 25.216 141.631 25.424 141.237 25.712C140.853 26 140.501 26.336 140.181 26.72C139.861 27.104 139.605 27.5573 139.413 28.08C139.221 28.6027 139.125 29.1413 139.125 29.696C139.125 31.2213 139.535 32.5227 140.357 33.6C141.189 34.6667 142.191 35.2 143.365 35.2ZM163.992 35.28H164.872V36H160.104V35.28H161.064C161.288 35.28 161.443 35.216 161.528 35.088C161.624 34.96 161.672 34.848 161.672 34.752V34.544L160.648 31.712H156.168L155.176 34.544V34.736C155.176 34.8427 155.229 34.9547 155.336 35.072C155.443 35.1787 155.592 35.248 155.784 35.28H156.744V36H152.568V35.28H153.368C153.56 35.248 153.741 35.1627 153.912 35.024C154.072 34.8853 154.184 34.7253 154.248 34.544L157.96 24.16H159.4L163.112 34.544C163.261 34.9707 163.555 35.216 163.992 35.28ZM156.456 30.96H160.392L158.424 25.44L156.456 30.96ZM172.274 34.32C172.274 34.96 172.728 35.28 173.634 35.28H174.05V36H169.506V35.28L170.066 35.264C170.888 35.2427 171.298 34.928 171.298 34.32V25.888C171.298 25.4293 171.048 25.1627 170.546 25.088H169.506V24.368H172.258L177.33 33.376L181.874 24.368H185.154V25.088H184.034C183.608 25.1627 183.394 25.4293 183.394 25.888V34.32C183.394 34.96 183.842 35.28 184.738 35.28H185.154V36H180.066V35.28L180.626 35.264C181.448 35.2427 181.858 34.928 181.858 34.32V26.368L177.122 35.648L172.274 27.152V34.32ZM193.108 34.8C193.183 35.12 193.428 35.28 193.844 35.28H194.884V36H189.796V35.28L190.932 35.264C191.231 35.2213 191.45 35.0667 191.588 34.8V25.568C191.546 25.3227 191.295 25.1627 190.836 25.088H189.796V24.368H194.884V25.088H193.764C193.476 25.1307 193.258 25.2907 193.108 25.568V34.8Z" fill="#9A7C44"/>
<path d="M69.3339 96.92C71.1259 96.92 72.0219 97.7973 72.0219 99.552C72.0219 100.159 71.8866 100.649 71.6159 101.022C71.3453 101.395 70.8133 101.876 70.0199 102.464C69.2359 103.043 68.6713 103.561 68.3259 104.018C67.8686 104.634 67.6353 105.241 67.6259 105.838H70.6499C70.8739 105.838 71.1213 105.754 71.3919 105.586C71.6719 105.418 71.8959 105.245 72.0639 105.068L72.3019 104.816L71.8399 107.014H66.4219V105.838C66.4219 105.11 66.7953 104.331 67.5419 103.5C67.8873 103.117 68.2559 102.753 68.6479 102.408C69.6746 101.475 70.3233 100.798 70.5939 100.378C70.7246 100.154 70.7899 99.8507 70.7899 99.468C70.7899 99.076 70.6079 98.74 70.2439 98.46C69.8799 98.18 69.4879 98.04 69.0679 98.04C68.6479 98.04 68.2186 98.1053 67.7799 98.236C67.3506 98.3667 66.9866 98.5207 66.6879 98.698L66.5479 98.782L66.3799 98.068C66.5386 97.8813 66.9353 97.6433 67.5699 97.354C68.2046 97.0647 68.7926 96.92 69.3339 96.92ZM81.2592 97.816C81.0632 97.676 80.7039 97.6013 80.1812 97.592H80.1532C79.6399 97.592 79.0145 97.8813 78.2772 98.46L77.8712 97.9L78.2772 97.634C79.2292 97.0087 79.9899 96.696 80.5592 96.696C81.1285 96.696 81.6139 96.7987 82.0152 97.004C82.4165 97.2 82.6965 97.48 82.8552 97.844C83.0232 98.1987 83.1072 98.5907 83.1072 99.02C83.1072 99.44 82.9252 99.86 82.5612 100.28C82.2065 100.691 81.6512 101.059 80.8952 101.386C82.1085 101.423 82.9345 101.811 83.3732 102.548C83.5785 102.893 83.6812 103.313 83.6812 103.808C83.6812 104.592 83.4105 105.241 82.8692 105.754C82.3372 106.258 81.6419 106.645 80.7832 106.916C80.2885 107.075 79.7752 107.154 79.2432 107.154C78.7112 107.154 78.1932 107.117 77.6892 107.042L77.4512 106.216L77.7032 106.258L78.0112 106.3C78.2165 106.328 78.5059 106.342 78.8792 106.342C79.2619 106.342 79.6072 106.314 79.9152 106.258C80.4752 106.146 81.0259 105.871 81.5672 105.432C82.1085 104.993 82.3792 104.452 82.3792 103.808C82.3792 102.623 81.6279 102.03 80.1252 102.03H80.1112C80.0272 102.021 79.9292 102.016 79.8172 102.016C79.7145 102.016 79.5419 102.049 79.2992 102.114L78.6272 102.296L78.5152 101.484L79.0892 101.414C79.2852 101.386 79.5185 101.307 79.7892 101.176C81.1519 100.467 81.8332 99.7013 81.8332 98.88C81.8332 98.4413 81.6419 98.0867 81.2592 97.816ZM96.9477 98.222C96.7704 98.0353 96.6817 97.816 96.6817 97.564C96.6817 97.312 96.7704 97.0973 96.9477 96.92C97.1344 96.7333 97.3537 96.64 97.6057 96.64C97.8577 96.64 98.0724 96.7333 98.2497 96.92C98.4364 97.0973 98.5297 97.312 98.5297 97.564C98.5297 97.816 98.4364 98.0353 98.2497 98.222C98.0724 98.3993 97.8577 98.488 97.6057 98.488C97.3537 98.488 97.1344 98.3993 96.9477 98.222ZM98.2077 99.72V107.168C98.2077 107.84 97.9837 108.419 97.5357 108.904C97.1717 109.296 96.4671 109.492 95.4217 109.492C95.1977 109.492 94.9551 109.483 94.6937 109.464C94.6937 109.464 94.6937 109.375 94.6937 109.198C94.6937 109.067 94.6424 108.918 94.5397 108.75C95.7717 108.75 96.4951 108.633 96.7097 108.4C96.9337 108.167 97.0457 107.887 97.0457 107.56V101.12H95.9957V100.84L97.6617 99.72H98.2077ZM107.505 99.804H109.731V106.076C109.787 106.141 109.857 106.174 109.941 106.174C109.997 106.174 110.17 105.992 110.459 105.628V106.258C110.31 106.874 110.007 107.182 109.549 107.182C109.092 107.182 108.761 106.851 108.555 106.188V105.88C108.21 106.767 107.445 107.21 106.259 107.21C104.701 107.201 103.921 106.048 103.921 103.752V100.434H102.871V99.804H105.083V103.472C105.102 105.432 105.531 106.412 106.371 106.412C107.827 106.412 108.555 105.465 108.555 103.57V100.434H107.505V99.804ZM116.952 101.176C117.297 100.289 118.058 99.846 119.234 99.846C121.035 99.8553 121.936 101.008 121.936 103.304V105.95C122.001 106.23 122.169 106.37 122.44 106.37H122.972V107H119.738V106.37L120.34 106.356C120.527 106.319 120.671 106.183 120.774 105.95V103.584C120.774 101.605 120.228 100.616 119.136 100.616C117.68 100.616 116.952 101.563 116.952 103.458V105.95C117.017 106.23 117.185 106.37 117.456 106.37H117.988V107H114.754V106.37L115.356 106.356C115.543 106.319 115.687 106.183 115.79 105.95V101.12H114.74V100.84L116.406 99.72H116.952V101.176ZM138.769 96.92C140.561 96.92 141.457 97.7973 141.457 99.552C141.457 100.159 141.322 100.649 141.051 101.022C140.78 101.395 140.248 101.876 139.455 102.464C138.671 103.043 138.106 103.561 137.761 104.018C137.304 104.634 137.07 105.241 137.061 105.838H140.085C140.309 105.838 140.556 105.754 140.827 105.586C141.107 105.418 141.331 105.245 141.499 105.068L141.737 104.816L141.275 107.014H135.857V105.838C135.857 105.11 136.23 104.331 136.977 103.5C137.322 103.117 137.691 102.753 138.083 102.408C139.11 101.475 139.758 100.798 140.029 100.378C140.16 100.154 140.225 99.8507 140.225 99.468C140.225 99.076 140.043 98.74 139.679 98.46C139.315 98.18 138.923 98.04 138.503 98.04C138.083 98.04 137.654 98.1053 137.215 98.236C136.786 98.3667 136.422 98.5207 136.123 98.698L135.983 98.782L135.815 98.068C135.974 97.8813 136.37 97.6433 137.005 97.354C137.64 97.0647 138.228 96.92 138.769 96.92ZM150.05 96.808C151.058 96.808 151.838 97.2653 152.388 98.18C152.948 99.0947 153.228 100.35 153.228 101.946C153.228 103.103 153.056 104.102 152.71 104.942C152.374 105.773 151.898 106.375 151.282 106.748C150.862 107 150.452 107.126 150.05 107.126C149.136 107.126 148.375 106.673 147.768 105.768C147.171 104.853 146.872 103.579 146.872 101.946C146.872 99.4353 147.488 97.8347 148.72 97.144C149.122 96.92 149.565 96.808 150.05 96.808ZM150.05 106.426C150.526 106.426 150.951 106.015 151.324 105.194C151.707 104.363 151.898 103.369 151.898 102.212C151.898 99.0667 151.282 97.494 150.05 97.494C149.518 97.494 149.075 97.8813 148.72 98.656C148.375 99.4213 148.202 100.415 148.202 101.638C148.202 104.037 148.585 105.549 149.35 106.174C149.556 106.342 149.789 106.426 150.05 106.426ZM161.444 96.92C163.236 96.92 164.132 97.7973 164.132 99.552C164.132 100.159 163.996 100.649 163.726 101.022C163.455 101.395 162.923 101.876 162.13 102.464C161.346 103.043 160.781 103.561 160.436 104.018C159.978 104.634 159.745 105.241 159.736 105.838H162.76C162.984 105.838 163.231 105.754 163.502 105.586C163.782 105.418 164.006 105.245 164.174 105.068L164.412 104.816L163.95 107.014H158.532V105.838C158.532 105.11 158.905 104.331 159.652 103.5C159.997 103.117 160.366 102.753 160.758 102.408C161.784 101.475 162.433 100.798 162.704 100.378C162.834 100.154 162.9 99.8507 162.9 99.468C162.9 99.076 162.718 98.74 162.354 98.46C161.99 98.18 161.598 98.04 161.178 98.04C160.758 98.04 160.328 98.1053 159.89 98.236C159.46 98.3667 159.096 98.5207 158.798 98.698L158.658 98.782L158.49 98.068C158.648 97.8813 159.045 97.6433 159.68 97.354C160.314 97.0647 160.902 96.92 161.444 96.92ZM173.369 97.816C173.173 97.676 172.813 97.6013 172.291 97.592H172.263C171.749 97.592 171.124 97.8813 170.387 98.46L169.981 97.9L170.387 97.634C171.339 97.0087 172.099 96.696 172.669 96.696C173.238 96.696 173.723 96.7987 174.125 97.004C174.526 97.2 174.806 97.48 174.965 97.844C175.133 98.1987 175.217 98.5907 175.217 99.02C175.217 99.44 175.035 99.86 174.671 100.28C174.316 100.691 173.761 101.059 173.005 101.386C174.218 101.423 175.044 101.811 175.483 102.548C175.688 102.893 175.791 103.313 175.791 103.808C175.791 104.592 175.52 105.241 174.979 105.754C174.447 106.258 173.751 106.645 172.893 106.916C172.398 107.075 171.885 107.154 171.353 107.154C170.821 107.154 170.303 107.117 169.799 107.042L169.561 106.216L169.813 106.258L170.121 106.3C170.326 106.328 170.615 106.342 170.989 106.342C171.371 106.342 171.717 106.314 172.025 106.258C172.585 106.146 173.135 105.871 173.677 105.432C174.218 104.993 174.489 104.452 174.489 103.808C174.489 102.623 173.737 102.03 172.235 102.03H172.221C172.137 102.021 172.039 102.016 171.927 102.016C171.824 102.016 171.651 102.049 171.409 102.114L170.737 102.296L170.625 101.484L171.199 101.414C171.395 101.386 171.628 101.307 171.899 101.176C173.261 100.467 173.943 99.7013 173.943 98.88C173.943 98.4413 173.751 98.0867 173.369 97.816Z" fill="#9A7C44"/>
</svg>
